<svg width="42" height="46" viewBox="0 0 42 46" fill="none" xmlns="http://www.w3.org/2000/svg">
<g filter="url(#filter0_d_55_219)">
<path d="M9.04163 22.2977C9.04163 19.9782 9.04163 18.8184 9.5105 17.799C9.97937 16.7796 10.8599 16.0248 12.621 14.5153L14.3293 13.051C17.5125 10.3226 19.1041 8.95837 21 8.95837C22.8958 8.95837 24.4874 10.3226 27.6706 13.051L29.3789 14.5153C31.14 16.0248 32.0205 16.7796 32.4894 17.799C32.9583 18.8184 32.9583 19.9782 32.9583 22.2977V29.5417C32.9583 32.7629 32.9583 34.3736 31.9576 35.3743C30.9569 36.375 29.3462 36.375 26.125 36.375H15.875C12.6537 36.375 11.0431 36.375 10.0423 35.3743C9.04163 34.3736 9.04163 32.7629 9.04163 29.5417V22.2977Z" stroke="#D9DFF1" stroke-width="2" shape-rendering="crispEdges"/>
</g>
<g filter="url(#filter1_d_55_219)">
<path d="M25.2708 36.375V27.125C25.2708 26.5727 24.8231 26.125 24.2708 26.125H17.7291C17.1768 26.125 16.7291 26.5727 16.7291 27.125V36.375" stroke="#D9DFF1" stroke-width="2" stroke-linecap="round" stroke-linejoin="round"/>
</g>
<defs>
<filter id="filter0_d_55_219" x="4.0415" y="7.95837" width="33.9169" height="37.4166" filterUnits="userSpaceOnUse" color-interpolation-filters="sRGB">
<feFlood flood-opacity="0" result="BackgroundImageFix"/>
<feColorMatrix in="SourceAlpha" type="matrix" values="0 0 0 0 0 0 0 0 0 0 0 0 0 0 0 0 0 0 127 0" result="hardAlpha"/>
<feOffset dy="4"/>
<feGaussianBlur stdDeviation="2"/>
<feComposite in2="hardAlpha" operator="out"/>
<feColorMatrix type="matrix" values="0 0 0 0 0 0 0 0 0 0 0 0 0 0 0 0 0 0 0.25 0"/>
<feBlend mode="normal" in2="BackgroundImageFix" result="effect1_dropShadow_55_219"/>
<feBlend mode="normal" in="SourceGraphic" in2="effect1_dropShadow_55_219" result="shape"/>
</filter>
<filter id="filter1_d_55_219" x="11.7291" y="25.125" width="18.5416" height="20.25" filterUnits="userSpaceOnUse" color-interpolation-filters="sRGB">
<feFlood flood-opacity="0" result="BackgroundImageFix"/>
<feColorMatrix in="SourceAlpha" type="matrix" values="0 0 0 0 0 0 0 0 0 0 0 0 0 0 0 0 0 0 127 0" result="hardAlpha"/>
<feOffset dy="4"/>
<feGaussianBlur stdDeviation="2"/>
<feComposite in2="hardAlpha" operator="out"/>
<feColorMatrix type="matrix" values="0 0 0 0 0 0 0 0 0 0 0 0 0 0 0 0 0 0 0.25 0"/>
<feBlend mode="normal" in2="BackgroundImageFix" result="effect1_dropShadow_55_219"/>
<feBlend mode="normal" in="SourceGraphic" in2="effect1_dropShadow_55_219" result="shape"/>
</filter>
</defs>
</svg>
