<svg width="37" height="39" viewBox="0 0 37 39" fill="none" xmlns="http://www.w3.org/2000/svg">
<g filter="url(#filter0_d_44_197)">
<path d="M14.4961 4.90385L15.4688 2.42769C15.6328 2.00845 15.9214 1.64784 16.2968 1.39309C16.6722 1.13834 17.1168 1.00133 17.5725 1H19.4274C19.8831 1.00133 20.3278 1.13834 20.7031 1.39309C21.0785 1.64784 21.3671 2.00845 21.5312 2.42769L22.5039 4.90385L25.8064 6.77769L28.4757 6.37615C28.9202 6.31666 29.3726 6.3888 29.7755 6.58344C30.1781 6.77807 30.5131 7.08639 30.7378 7.46923L31.6426 9.03077C31.8745 9.4197 31.9815 9.86882 31.9491 10.3189C31.9168 10.7689 31.7469 11.1987 31.4616 11.5515L29.8103 13.6262V17.3738L31.5069 19.4485C31.7921 19.8013 31.962 20.2311 31.9943 20.6811C32.0267 21.1312 31.9197 21.5803 31.6878 21.9692L30.783 23.5308C30.5584 23.9136 30.2234 24.2219 29.8207 24.4166C29.4178 24.6111 28.9654 24.6834 28.5209 24.6238L25.8517 24.2223L22.5491 26.0962L21.5764 28.5723C21.4124 28.9915 21.1238 29.3522 20.7484 29.6069C20.373 29.8617 19.9283 29.9987 19.4727 30H17.5725C17.1168 29.9987 16.6722 29.8617 16.2968 29.6069C15.9214 29.3522 15.6328 28.9915 15.4688 28.5723L14.4961 26.0962L11.1934 24.2223L8.52418 24.6238C8.07973 24.6834 7.62736 24.6111 7.22457 24.4166C6.82181 24.2219 6.48679 23.9136 6.2621 23.5308L5.35727 21.9692C5.1254 21.5803 5.01859 21.1312 5.05089 20.6811C5.08319 20.2311 5.25312 19.8013 5.53823 19.4485L7.18955 17.3738V13.6262L5.49299 11.5515C5.20788 11.1987 5.03795 10.7689 5.00565 10.3189C4.97335 9.86882 5.08016 9.4197 5.31202 9.03077L6.21686 7.46923C6.44155 7.08639 6.77657 6.77807 7.17933 6.58344C7.58212 6.3888 8.03449 6.31666 8.47894 6.37615L11.1482 6.77769L14.4961 4.90385ZM13.9758 15.5C13.9758 16.3824 14.2411 17.245 14.7383 17.9787C15.2354 18.7124 15.942 19.2842 16.7686 19.6219C17.5953 19.9596 18.505 20.048 19.3826 19.8758C20.2602 19.7037 21.0663 19.2787 21.6991 18.6548C22.3318 18.0308 22.7626 17.2359 22.9372 16.3704C23.1118 15.505 23.0222 14.6079 22.6798 13.7926C22.3374 12.9774 21.7575 12.2806 21.0135 11.7904C20.2695 11.3001 19.3948 11.0385 18.5 11.0385C17.3001 11.0385 16.1494 11.5085 15.3009 12.3452C14.4525 13.1819 13.9758 14.3167 13.9758 15.5Z" stroke="#D9DFF1" stroke-width="2" stroke-linecap="round" stroke-linejoin="round"/>
</g>
<defs>
<filter id="filter0_d_44_197" x="0" y="0" width="37" height="39" filterUnits="userSpaceOnUse" color-interpolation-filters="sRGB">
<feFlood flood-opacity="0" result="BackgroundImageFix"/>
<feColorMatrix in="SourceAlpha" type="matrix" values="0 0 0 0 0 0 0 0 0 0 0 0 0 0 0 0 0 0 127 0" result="hardAlpha"/>
<feOffset dy="4"/>
<feGaussianBlur stdDeviation="2"/>
<feComposite in2="hardAlpha" operator="out"/>
<feColorMatrix type="matrix" values="0 0 0 0 0 0 0 0 0 0 0 0 0 0 0 0 0 0 0.25 0"/>
<feBlend mode="normal" in2="BackgroundImageFix" result="effect1_dropShadow_44_197"/>
<feBlend mode="normal" in="SourceGraphic" in2="effect1_dropShadow_44_197" result="shape"/>
</filter>
</defs>
</svg>
