<svg width="41" height="45" viewBox="0 0 41 45" fill="none" xmlns="http://www.w3.org/2000/svg">
<g filter="url(#filter0_d_53_217)">
<path d="M8.54163 21.7977C8.54163 19.4782 8.54163 18.3184 9.0105 17.299C9.47937 16.2796 10.3599 15.5248 12.121 14.0153L13.8293 12.551C17.0125 9.82259 18.6041 8.45837 20.5 8.45837C22.3958 8.45837 23.9874 9.82259 27.1706 12.551L28.8789 14.0153C30.64 15.5248 31.5205 16.2796 31.9894 17.299C32.4583 18.3184 32.4583 19.4782 32.4583 21.7977V29.0417C32.4583 32.2629 32.4583 33.8736 31.4576 34.8743C30.4569 35.875 28.8462 35.875 25.625 35.875H15.375C12.1537 35.875 10.5431 35.875 9.54234 34.8743C8.54163 33.8736 8.54163 32.2629 8.54163 29.0417V21.7977Z" stroke="#D9DFF1" stroke-width="2" shape-rendering="crispEdges"/>
</g>
<g filter="url(#filter1_d_53_217)">
<path d="M24.7708 35.875V26.625C24.7708 26.0727 24.3231 25.625 23.7708 25.625H17.2291C16.6768 25.625 16.2291 26.0727 16.2291 26.625V35.875" stroke="#D9DFF1" stroke-width="2" stroke-linecap="round" stroke-linejoin="round"/>
</g>
<defs>
<filter id="filter0_d_53_217" x="3.5415" y="7.45837" width="33.9169" height="37.4166" filterUnits="userSpaceOnUse" color-interpolation-filters="sRGB">
<feFlood flood-opacity="0" result="BackgroundImageFix"/>
<feColorMatrix in="SourceAlpha" type="matrix" values="0 0 0 0 0 0 0 0 0 0 0 0 0 0 0 0 0 0 127 0" result="hardAlpha"/>
<feOffset dy="4"/>
<feGaussianBlur stdDeviation="2"/>
<feComposite in2="hardAlpha" operator="out"/>
<feColorMatrix type="matrix" values="0 0 0 0 0 0 0 0 0 0 0 0 0 0 0 0 0 0 0.25 0"/>
<feBlend mode="normal" in2="BackgroundImageFix" result="effect1_dropShadow_53_217"/>
<feBlend mode="normal" in="SourceGraphic" in2="effect1_dropShadow_53_217" result="shape"/>
</filter>
<filter id="filter1_d_53_217" x="11.2291" y="24.625" width="18.5416" height="20.25" filterUnits="userSpaceOnUse" color-interpolation-filters="sRGB">
<feFlood flood-opacity="0" result="BackgroundImageFix"/>
<feColorMatrix in="SourceAlpha" type="matrix" values="0 0 0 0 0 0 0 0 0 0 0 0 0 0 0 0 0 0 127 0" result="hardAlpha"/>
<feOffset dy="4"/>
<feGaussianBlur stdDeviation="2"/>
<feComposite in2="hardAlpha" operator="out"/>
<feColorMatrix type="matrix" values="0 0 0 0 0 0 0 0 0 0 0 0 0 0 0 0 0 0 0.25 0"/>
<feBlend mode="normal" in2="BackgroundImageFix" result="effect1_dropShadow_53_217"/>
<feBlend mode="normal" in="SourceGraphic" in2="effect1_dropShadow_53_217" result="shape"/>
</filter>
</defs>
</svg>
