<svg width="36" height="34" viewBox="0 0 36 34" fill="none" xmlns="http://www.w3.org/2000/svg">
<path d="M21 21.25L15 26.9167L21 32.5833" stroke="#787C92" stroke-width="2"/>
<path d="M27.0933 12.0416C28.0707 13.6405 28.5561 15.4654 28.4948 17.3107C28.4336 19.156 27.8281 20.9485 26.7466 22.4865C25.6651 24.0244 24.1504 25.2466 22.3732 26.0156C20.596 26.7845 18.6268 27.0697 16.6873 26.8388" stroke="#787C92" stroke-width="2" stroke-linecap="round"/>
<path d="M15 12.75L21 7.08333L15 1.41667" stroke="#787C92" stroke-width="2"/>
<path d="M8.90673 21.9584C7.91513 20.3363 7.43021 18.4821 7.5081 16.6105C7.58599 14.739 8.22351 12.9265 9.34685 11.3829C10.4702 9.83934 12.0334 8.62778 13.8556 7.8885C15.6778 7.14921 17.6844 6.91242 19.6432 7.20554" stroke="#787C92" stroke-width="2" stroke-linecap="round"/>
</svg>
